<svg 
 xmlns="http://www.w3.org/2000/svg"
 xmlns:xlink="http://www.w3.org/1999/xlink"
 width="20px" height="20px">
<defs>
<linearGradient id="PSgrad_0" x1="0%" x2="0%" y1="100%" y2="0%">
  <stop offset="0%" stop-color="rgb(17,57,169)" stop-opacity="1" />
  <stop offset="100%" stop-color="rgb(50,103,253)" stop-opacity="1" />
</linearGradient>

</defs>
<path fill-rule="evenodd"  fill="url(#PSgrad_0)"
 d="M10.000,19.999 C4.486,19.999 -0.000,15.513 -0.000,9.999 C-0.000,4.484 4.486,-0.001 10.000,-0.001 C15.514,-0.001 20.000,4.484 20.000,9.999 C20.000,15.513 15.514,19.999 10.000,19.999 ZM10.000,2.126 C5.659,2.126 2.127,5.658 2.127,9.999 C2.127,14.340 5.659,17.871 10.000,17.871 C14.341,17.871 17.873,14.340 17.873,9.999 C17.873,5.658 14.341,2.126 10.000,2.126 ZM15.212,11.337 L9.894,11.337 C9.440,11.337 9.071,10.968 9.071,10.513 L9.071,4.287 C9.071,3.832 9.440,3.463 9.894,3.463 C10.349,3.463 10.718,3.832 10.718,4.287 L10.718,9.690 L15.212,9.690 C15.666,9.690 16.035,10.059 16.035,10.513 C16.035,10.968 15.666,11.337 15.212,11.337 Z"/>
</svg>