<svg 
 xmlns="http://www.w3.org/2000/svg"
 xmlns:xlink="http://www.w3.org/1999/xlink"
 width="17px" height="25px">
<defs>
<linearGradient id="PSgrad_0" x1="0%" x2="0%" y1="100%" y2="0%">
  <stop offset="0%" stop-color="rgb(17,57,169)" stop-opacity="1" />
  <stop offset="100%" stop-color="rgb(50,103,253)" stop-opacity="1" />
</linearGradient>

</defs>
<path fill-rule="evenodd"  fill="url(#PSgrad_0)"
 d="M8.500,-0.001 C3.813,-0.001 -0.000,3.737 -0.000,8.332 C-0.000,9.711 0.352,11.080 1.020,12.292 L8.035,24.730 C8.129,24.896 8.306,24.999 8.500,24.999 C8.693,24.999 8.871,24.896 8.965,24.730 L15.982,12.288 C16.648,11.080 17.000,9.711 17.000,8.332 C17.000,3.737 13.187,-0.001 8.500,-0.001 ZM8.500,12.499 C6.156,12.499 4.250,10.630 4.250,8.332 C4.250,6.035 6.156,4.166 8.500,4.166 C10.843,4.166 12.750,6.035 12.750,8.332 C12.750,10.630 10.843,12.499 8.500,12.499 Z"/>
</svg>