<svg xmlns="http://www.w3.org/2000/svg" viewBox="0 0 20 27">
  <path d="M18.7 27H1.3C.6 27 0 26.4 0 25.7V1.3C0 .6.6 0 1.3 0h13.3c.2 0 .3.1.4.2L19.8 5c.1.1.2.3.2.5v20.2c0 .7-.6 1.3-1.3 1.3zM15.2 2.2v2.6s0 .1.1.1h2.6l-2.7-2.7zm3.5 3.9h-3.5c-.7 0-1.3-.6-1.3-1.3V1.3H1.3s-.1 0-.1.1v24.3s0 .1.1.1h17.4s.1 0 .1-.1V6.1zm-3.2 11.4h-11c-.3 0-.6-.3-.6-.6s.3-.6.6-.6h11.1c.3 0 .6.3.6.6-.1.4-.3.6-.7.6zm0-3.8h-11c-.3 0-.6-.3-.6-.6s.3-.6.6-.6h11.1c.3 0 .6.3.6.6-.1.3-.3.6-.7.6zm0-3.8h-11c-.3 0-.6-.3-.6-.6s.3-.6.6-.6h11.1c.3 0 .6.3.6.6s-.3.6-.7.6zm-11 10.2H10c.3 0 .6.3.6.6s-.3.6-.6.6H4.5c-.3 0-.6-.3-.6-.6-.1-.3.2-.6.6-.6z"/>
</svg>
