<svg xmlns="http://www.w3.org/2000/svg" viewBox="0 0 27 27">
  <path d="M26.6 25.3c-.5.9-1.4 1.5-2.4 1.6h-.4c-.8 0-1.6-.3-2.2-.9l-.2-.2-2.2-2.5-.1-.1-7.3-8.4c-.3.3-.7.4-1.1.4-.4 0-.8-.2-1.1-.5-.1-.1-.2-.3-.3-.4l-.7.7c.2.7 0 1.5-.5 2-.4.4-1 .6-1.5.6s-1.1-.2-1.5-.6L.6 12.5c-.8-.8-.8-2.2 0-3 .4-.3.9-.6 1.5-.6.2 0 .4 0 .5.1L9 2.7C8.8 2 9 1.2 9.6.6c.4-.4.9-.6 1.5-.6s1.1.2 1.5.6L17 5.1c.4.4.6.9.6 1.5s-.2 1.1-.6 1.5c-.4.4-1 .6-1.5.6-.2 0-.4 0-.5-.1l-.6.6c.2.1.3.2.4.3.3.3.5.7.5 1.1 0 .4-.2.8-.4 1.1l6.9 6 1.5 1.3c.1 0 .1.1.1.1s0 .1.1.1l2.5 2.1c.2.2.5.5.6.7.5 1.1.6 2.4 0 3.3zM10.3 14c.1.1.2.2.4.2.1 0 .3-.1.4-.2l.4-.4 2.2-2.2.4-.4c.1-.1.2-.2.2-.4 0-.1-.1-.3-.2-.4-.2-.2-.5-.2-.7 0l-3 3c-.1.1-.1.2-.1.4-.1.2-.1.3 0 .4zm-8.2-4c-.3 0-.5.1-.7.3-.4.4-.4 1.1 0 1.5l4.5 4.5c.4.4 1.1.4 1.5 0 .4-.4.4-1.1 0-1.5l-4.5-4.5c-.2-.2-.5-.3-.8-.3zm1.5-.4L8.1 14l1.5-1.5 3-3L14 8.1 9.6 3.6l-6 6zm11.2-2.3c.4.4 1.1.4 1.5 0 .2-.2.3-.5.3-.7 0-.3-.1-.5-.3-.7l-4.5-4.5c-.2-.2-.5-.3-.7-.3-.3 0-.5.1-.7.3-.4.4-.4 1.1 0 1.5l4.4 4.4zm-.7 5.2L12.6 14l5.7 6.5 2.4-2.4-6.6-5.6zm7.3 6.4l-2.5 2.5.7.8 2.6-2.6-.8-.7zm4.2 3.8c-.1-.2-.3-.4-.4-.5L23 20.3 20.3 23l1.9 2.2.1.1c.5.5 1.1.7 1.8.6.7-.1 1.2-.5 1.6-1.1.3-.6.3-1.5-.1-2.1zM7.7 8.4c-.1.2-.2.2-.4.2-.1 0-.2 0-.3-.2-.3-.2-.3-.5 0-.7l2.2-2.2c.2-.2.5-.2.7 0 .2.2.2.5 0 .7L7.7 8.4zM5.5 9.9c-.2-.2-.2-.5 0-.7.2-.2.5-.2.7 0 .2.2.2.5 0 .7-.2.2-.5.2-.7 0zM1.4 23.6c-.2-.3-.4-.7-.4-1.1 0-.5.2-1 .5-1.3.3-.3.8-.5 1.3-.5h9c1 0 1.8.8 1.8 1.8 0 .4-.1.8-.4 1.1.8.4 1.4 1.3 1.4 2.3v.5c0 .3-.2.5-.5.5H.5c-.3.1-.5-.1-.5-.4V26c0-1.1.6-1.9 1.4-2.4zm10.5-1.9h-9c-.2 0-.4.1-.6.2-.1.2-.2.3-.2.6 0 .4.4.8.8.8h9c.2 0 .4-.1.6-.2.1-.2.2-.3.2-.6 0-.4-.4-.8-.8-.8zm1.8 4.2c0-.9-.7-1.6-1.6-1.6H2.6c-.9 0-1.6.7-1.6 1.6h12.7z"/>
</svg>
