<svg xmlns="http://www.w3.org/2000/svg" viewBox="0 0 22 26">
  <path class="st0" d="M11.3 26H11c-.1 0-.2 0-.3-.1C-.3 22.2-.1 13.2 0 6.7v-2c0-.5.4-.9.9-.9 3.9 0 6.9-1.1 9.4-3.5.4-.3.9-.3 1.3 0 2.5 2.4 5.5 3.5 9.4 3.5.5 0 .9.4.9.9v2c.2 6.5.4 15.5-10.6 19.3zm8.8-19.3V5.5c-3.7-.2-6.6-1.3-9.1-3.4-2.5 2.2-5.4 3.3-9.1 3.5v1.2c-.1 6.6-.3 14 9.1 17.4 9.4-3.5 9.3-10.9 9.1-17.5zm-9.7 9.5c-.2.2-.4.3-.6.3-.2 0-.5-.1-.6-.3l-2.5-2.5c-.4-.4-.4-.9 0-1.3s.9-.4 1.3 0l1.9 1.9 4.4-4.4c.4-.4.9-.4 1.3 0s.4.9 0 1.3l-5.2 5z"/>
</svg>
