<svg xmlns="http://www.w3.org/2000/svg">
<path fill-rule="evenodd" d="M17.071,17.069 C15.182,18.957 12.671,19.998 10.000,19.998 C7.329,19.998 4.818,18.957 2.929,17.069 C1.040,15.180 -0.000,12.669 -0.000,9.998 C-0.000,7.326 1.040,4.816 2.929,2.927 C4.818,1.039 7.329,-0.002 10.000,-0.002 C12.671,-0.002 15.182,1.039 17.071,2.927 C18.960,4.816 20.000,7.326 20.000,9.998 C20.000,12.669 18.960,15.180 17.071,17.069 ZM10.000,1.170 C5.132,1.170 1.172,5.130 1.172,9.998 C1.172,14.866 5.132,18.826 10.000,18.826 C14.868,18.826 18.828,14.866 18.828,9.998 C18.828,5.130 14.868,1.170 10.000,1.170 ZM9.189,13.206 C9.075,13.321 8.925,13.378 8.775,13.378 C8.625,13.378 8.475,13.321 8.360,13.206 L5.222,10.068 C4.994,9.840 4.994,9.468 5.222,9.240 C5.451,9.011 5.822,9.011 6.051,9.240 L8.775,11.964 L13.949,6.790 C14.178,6.560 14.549,6.560 14.777,6.790 C15.006,7.018 15.006,7.390 14.777,7.618 L9.189,13.206 Z"/>
</svg>