<svg id="Слой_1" xmlns="http://www.w3.org/2000/svg" viewBox="0 0 13 13">
  <path class="st0" d="M12.9 6.4c-.1.1-.2.1-.4.1-.5 0-.5-.5-.5-.7v-.2c-.4-2.9-1.7-4.2-4.7-4.7h-.1c-.3.1-.7.1-.7-.4 0-.2.1-.5.6-.5H7.4c3 .1 5.6 2.8 5.6 5.7v.1c0 .2 0 .5-.1.6zm-5.3-3c.4 0 .9.2 1.3.6.4.4.7.9.6 1.4 0 .4-.1.7-.5.7h-.1c-.3 0-.5-.2-.5-.5-.1-.7-.4-1-1.1-1.1-.1-.1-.3-.2-.4-.3v-.5c.1-.3.5-.3.7-.3zm-.9-1.3c0-.2.1-.4.5-.4h.4c2 .2 3.6 1.9 3.6 3.7v.1c0 .2 0 .6-.4.6h-.1c-.5 0-.5-.4-.5-.6v-.2c-.3-1.5-.9-2.1-2.7-2.5h-.2c-.2 0-.4-.1-.6-.2v-.5zM7 9c.2.1.3.1.5.1.1 0 .3-.1.5-.3.3-.5.8-.8 1.2-.8.4 0 .7.1 1.2.4.1 0 .1.1.2.1.3.2.7.5 1 .7.1 0 .1.1.2.1.5.4 1.1.8.7 1.7-.4 1.1-1.5 2-2.5 2h-.1-.1c-.1 0-.3-.1-.5-.2-2.1-.9-3.9-2.1-5.4-3.5C2.3 7.8 1.1 6 .2 4c-.3-.7-.3-1.4 0-2C.5 1.4 1 1 1.8.7c.3-.1.6-.1.9 0 .7.3 2.4 2.4 2.4 3.2 0 .6-.5 1-.7 1.1-.5.3-.6.7-.3 1.3C4.6 7.5 5.6 8.4 7 9z"/>
</svg>
