<svg id="Слой_1" xmlns="http://www.w3.org/2000/svg" viewBox="0 0 13 13">
  <path class="st0" d="M13 6.3c0 3.5-2.9 6.3-6.4 6.3-1.1 0-2.2-.3-3.1-.8L0 13l1.2-3.4C.6 8.6.3 7.5.3 6.3.2 2.8 3.1 0 6.6 0S13 2.8 13 6.3zM6.6 1c-3 0-5.4 2.4-5.4 5.3 0 1.2.4 2.2 1 3.1l-.7 2 2.1-.7c.8.6 1.9.9 3 .9 3 0 5.4-2.4 5.4-5.3S9.6 1 6.6 1zm3.2 6.8c0-.1-.1-.1-.3-.2-.1-.1-.9-.4-1-.5-.2 0-.3-.1-.4.1-.1.1-.4.5-.5.6-.1.1-.2.1-.3 0-.2 0-.7-.2-1.3-.7-.4-.5-.8-1-.8-1.1-.1-.2 0-.2.1-.3.1-.1.2-.2.2-.3.1-.1.1-.2.2-.3.1-.1 0-.2 0-.3 0-.1-.4-.8-.5-1.2-.2-.2-.3-.1-.4-.1h-.3c-.1 0-.3 0-.4.2-.2.1-.6.5-.6 1.2 0 .8.6 1.5.6 1.6.1.1 1.1 1.7 2.7 2.3 1.6.6 1.6.4 1.9.4.3 0 .9-.4 1.1-.7.1-.3.1-.6 0-.7z"/>
</svg>
